# xmcd
#
# Track frame offsets: 
#        150
#        16724
#        40333
#        60378
#        79352
#        93663
#        111753
#        129408
#        153102
#        172493
#        195107
#        218734
#        236116
#
# Disc length: 3449 seconds
#
# Revision: 0
# Processed by: cddbd v1.5.2PL0 Copyright (c) Steve Scherf et al.
# Submitted via: ExactAudioCopyFreeDBPlugin 1.0
#
DISCID=a60d770d
DTITLE=38B - STE20试音极品TESTCD
DYEAR=2016
DGENRE=STE
TTITLE0=最美丽的萨日朗
TTITLE1=带我到山顶
TTITLE2=高原上的梦
TTITLE3=唐古拉
TTITLE4=梦中的妈妈
TTITLE5=一路吉祥
TTITLE6=幸福的歌
TTITLE7=阿妈的眼神
TTITLE8=鸿雁
TTITLE9=西海情歌
TTITLE10=云朵
TTITLE11=扎西哥哥
TTITLE12=愿做你的牛羊
EXTD=
EXTT0=
EXTT1=
EXTT2=
EXTT3=
EXTT4=
EXTT5=
EXTT6=
EXTT7=
EXTT8=
EXTT9=
EXTT10=
EXTT11=
EXTT12=
PLAYORDER=
